RBDS09runT35_grf
version=1
nRows=27
nColumns=19
inDegrees=no
endheader
time	ground_force_r_vx	ground_force_r_vy	ground_force_r_vz	ground_force_r_px	ground_force_r_py	ground_force_r_pz	ground_force_r_mx	ground_force_r_my	ground_force_r_mz	ground_force_l_vx	ground_force_l_vy	ground_force_l_vz	ground_force_l_px	ground_force_l_py	ground_force_l_pz	ground_force_l_mx	ground_force_l_my	ground_force_l_mz
     14.99900000	    157.18953977	    814.15773609	      0.80255346	      2.11873267	      0.00000000	      1.07331376	     -0.00000000	      1.41415025	      0.00000000	      0.00000000	      0.00000000	      0.00000000	      0.00000000	      0.00000000	      0.00000000	      0.00000000	      0.00000000	      0.00000000
     15.00000000	    157.61102295	    793.13910197	      1.44074645	      2.11536902	      0.00000000	      1.07335634	     -0.00000000	      1.72952821	      0.00000000	      0.00000000	      0.00000000	      0.00000000	      0.00000000	      0.00000000	      0.00000000	      0.00000000	      0.00000000	      0.00000000
     15.00100000	    157.44465917	    771.95215431	      1.92286561	      2.11206589	      0.00000000	      1.07342314	     -0.00000000	      2.01132140	      0.00000000	      0.00000000	      0.00000000	      0.00000000	      0.00000000	      0.00000000	      0.00000000	      0.00000000	      0.00000000	      0.00000000
     15.00200000	    157.27829539	    750.76520664	      2.40498477	      2.10876276	      0.00000000	      1.07348993	     -0.00000000	      2.29311460	      0.00000000	      0.00000000	      0.00000000	      0.00000000	      0.00000000	      0.00000000	      0.00000000	      0.00000000	      0.00000000	      0.00000000
     15.00300000	    157.11193160	    729.57825898	      2.88710393	      2.10545964	      0.00000000	      1.07355673	     -0.00000000	      2.57490779	      0.00000000	      0.00000000	      0.00000000	      0.00000000	      0.00000000	      0.00000000	      0.00000000	      0.00000000	      0.00000000	      0.00000000
     15.00400000	    156.58705321	    708.41532024	      3.26532138	      2.10220891	      0.00000000	      1.07363982	     -0.00000000	      2.83247346	      0.00000000	      0.00000000	      0.00000000	      0.00000000	      0.00000000	      0.00000000	      0.00000000	      0.00000000	      0.00000000	      0.00000000
     15.00500000	    155.88291752	    687.26438596	      3.59158798	      2.09898438	      0.00000000	      1.07373106	     -0.00000000	      3.07792538	      0.00000000	      0.00000000	      0.00000000	      0.00000000	      0.00000000	      0.00000000	      0.00000000	      0.00000000	      0.00000000	      0.00000000
     15.00600000	    155.17878183	    666.11345168	      3.91785457	      2.09575985	      0.00000000	      1.07382230	     -0.00000000	      3.32337729	      0.00000000	      0.00000000	      0.00000000	      0.00000000	      0.00000000	      0.00000000	      0.00000000	      0.00000000	      0.00000000	      0.00000000
     15.00700000	    154.31545710	    645.04258129	      4.19379809	      2.09256769	      0.00000000	      1.07392144	     -0.00000000	      3.55621989	      0.00000000	      0.00000000	      0.00000000	      0.00000000	      0.00000000	      0.00000000	      0.00000000	      0.00000000	      0.00000000	      0.00000000
     15.00800000	    153.13375429	    624.13183868	      4.36909545	      2.08944030	      0.00000000	      1.07403639	     -0.00000000	      3.76384387	      0.00000000	      0.00000000	      0.00000000	      0.00000000	      0.00000000	      0.00000000	      0.00000000	      0.00000000	      0.00000000	      0.00000000
     15.00900000	    151.95205148	    603.22109607	      4.54439281	      2.08631291	      0.00000000	      1.07415134	     -0.00000000	      3.97146785	      0.00000000	      0.00000000	      0.00000000	      0.00000000	      0.00000000	      0.00000000	      0.00000000	      0.00000000	      0.00000000	      0.00000000
     15.01000000	    150.77034866	    582.31035346	      4.71969017	      2.08318551	      0.00000000	      1.07426629	     -0.00000000	      4.17909183	      0.00000000	      0.00000000	      0.00000000	      0.00000000	      0.00000000	      0.00000000	      0.00000000	      0.00000000	      0.00000000	      0.00000000
     15.01100000	    149.17928061	    561.83923594	      4.75311984	      2.08017381	      0.00000000	      1.07440329	     -0.00000000	      4.34860912	      0.00000000	      0.00000000	      0.00000000	      0.00000000	      0.00000000	      0.00000000	      0.00000000	      0.00000000	      0.00000000	      0.00000000
     15.01200000	    147.58821256	    541.36811841	      4.78654951	      2.07716211	      0.00000000	      1.07454030	     -0.00000000	      4.51812641	      0.00000000	      0.00000000	      0.00000000	      0.00000000	      0.00000000	      0.00000000	      0.00000000	      0.00000000	      0.00000000	      0.00000000
     15.01300000	    145.99714452	    520.89700089	      4.81997919	      2.07415041	      0.00000000	      1.07467730	     -0.00000000	      4.68764369	      0.00000000	      0.00000000	      0.00000000	      0.00000000	      0.00000000	      0.00000000	      0.00000000	      0.00000000	      0.00000000	      0.00000000
     15.01400000	    144.18242197	    500.84580863	      4.76733664	      2.07122788	      0.00000000	      1.07482735	     -0.00000000	      4.83231586	      0.00000000	      0.00000000	      0.00000000	      0.00000000	      0.00000000	      0.00000000	      0.00000000	      0.00000000	      0.00000000	      0.00000000
     15.01500000	    142.25587217	    481.00457901	      4.67165800	      2.06834994	      0.00000000	      1.07498392	     -0.00000000	      4.96456546	      0.00000000	      0.00000000	      0.00000000	      0.00000000	      0.00000000	      0.00000000	      0.00000000	      0.00000000	      0.00000000	      0.00000000
     15.01600000	    140.32932238	    461.16334939	      4.57597935	      2.06547200	      0.00000000	      1.07514049	     -0.00000000	      5.09681505	      0.00000000	      0.00000000	      0.00000000	      0.00000000	      0.00000000	      0.00000000	      0.00000000	      0.00000000	      0.00000000	      0.00000000
     15.01700000	    138.31666099	    441.59106917	      4.44251926	      2.06264431	      0.00000000	      1.07530251	     -0.00000000	      5.21725667	      0.00000000	      0.00000000	      0.00000000	      0.00000000	      0.00000000	      0.00000000	      0.00000000	      0.00000000	      0.00000000	      0.00000000
     15.01800000	    136.13177639	    422.55668777	      4.23349630	      2.05991715	      0.00000000	      1.07547545	     -0.00000000	      5.31408234	      0.00000000	      0.00000000	      0.00000000	      0.00000000	      0.00000000	      0.00000000	      0.00000000	      0.00000000	      0.00000000	      0.00000000
     15.01900000	    133.94689180	    403.52230637	      4.02447333	      2.05718999	      0.00000000	      1.07564838	     -0.00000000	      5.41090800	      0.00000000	      0.00000000	      0.00000000	      0.00000000	      0.00000000	      0.00000000	      0.00000000	      0.00000000	      0.00000000	      0.00000000
     15.02000000	    131.76200720	    384.48792497	      3.81545036	      2.05446283	      0.00000000	      1.07582131	     -0.00000000	      5.50773366	      0.00000000	      0.00000000	      0.00000000	      0.00000000	      0.00000000	      0.00000000	      0.00000000	      0.00000000	      0.00000000	      0.00000000
     15.02100000	    129.39676038	    366.42031442	      3.51113164	      2.05190188	      0.00000000	      1.07600682	     -0.00000000	      5.57185194	     -0.00000000	      0.00000000	      0.00000000	      0.00000000	      0.00000000	      0.00000000	      0.00000000	      0.00000000	      0.00000000	      0.00000000
     15.02200000	    127.03151355	    348.35270387	      3.20681291	      2.04934094	      0.00000000	      1.07619232	     -0.00000000	      5.63597023	     -0.00000000	      0.00000000	      0.00000000	      0.00000000	      0.00000000	      0.00000000	      0.00000000	      0.00000000	      0.00000000	      0.00000000
     15.02300000	    124.66626672	    330.28509332	      2.90249419	      2.04678000	      0.00000000	      1.07637783	     -0.00000000	      5.70008851	     -0.00000000	      0.00000000	      0.00000000	      0.00000000	      0.00000000	      0.00000000	      0.00000000	      0.00000000	      0.00000000	      0.00000000
     15.02400000	    122.23172699	    312.95508083	      2.54769335	      2.04433876	      0.00000000	      1.07656892	     -0.00000000	      5.74469590	     -0.00000000	      0.00000000	      0.00000000	      0.00000000	      0.00000000	      0.00000000	      0.00000000	      0.00000000	      0.00000000	      0.00000000
     15.02500000	    119.76254081	    295.99386737	      2.16765146	      2.04195738	      0.00000000	      1.07676279	     -0.00000000	      5.77954784	     -0.00000000	      0.00000000	      0.00000000	      0.00000000	      0.00000000	      0.00000000	      0.00000000	      0.00000000	      0.00000000	      0.00000000
